<svg xmlns="http://www.w3.org/2000/svg" width="700pt" height="700pt" version="1" viewBox="0 0 700.000000 700.000000"><path d="M87.7.7c-.2.5-.3 79.1-.3 174.8l.1 174 43.8.3 43.7.2V0h-43.4c-23.9 0-43.7.3-43.9.7zM306.4 65.7l.1 65.6 42-.1c23.1 0 42.7-.1 43.6-.1 1.5-.1 1.6-5.9 1.5-65.4L393.5.5 349.9.2 306.3 0l.1 65.7zM525 218.8v218.7h87.5V0H525v218.8zM262.5 239.9c0 35.7.4 65.3.8 65.7.4.4 10.2.7 21.7.7l21-.1.1 3.7c0 2 .1 90.6.1 196.8l.1 193.3h87.4l.1-196.2c0-108 .1-196.6.1-196.9.1-.4 9.2-.6 20.4-.7 11.1 0 20.9-.1 21.7-.1 1.3-.1 1.5-8.1 1.5-65.6V175h-175v64.9zM44.2 394.4c-.4.7-.7 123.3-.3 129.3.1 1 5.5 1.3 21.9 1.5l21.7.3V700H175V525h43.9V394l-4.2-.1c-33-.6-170-.2-170.5.5zM481.4 546.8l.1 65.7 20.5.1c11.3.1 21.1.2 21.8.3.9.1 1.2 9.5 1.2 43.6V700l43.7-.2 43.8-.3.1-43c.1-23.7.2-43.2.3-43.5 0-.3 9.8-.5 21.6-.5s21.5-.2 21.6-.5c.1-.7.1-127.1 0-129.2-.1-1.6-6.1-1.7-87.5-1.6h-87.4l.2 65.6z"/></svg>